<svg width="335" height="12" viewBox="0 0 335 12" fill="none" xmlns="http://www.w3.org/2000/svg">
<path d="M329.891 0.343189H312.843C311.337 0.343189 310.115 1.56457 310.115 3.07123V9.20752C310.115 10.7142 311.337 11.9356 312.843 11.9356H329.891C331.397 11.9356 332.619 10.7142 332.619 9.20752V3.07123C332.619 1.56457 331.397 0.343189 329.891 0.343189Z" fill="white"/>
<path d="M329.891 0.854632H312.843C311.619 0.854632 310.627 1.84703 310.627 3.07123V9.20752C310.627 10.4317 311.619 11.4241 312.843 11.4241H329.891C331.115 11.4241 332.107 10.4317 332.107 9.20752V3.07123C332.107 1.84703 331.115 0.854632 329.891 0.854632Z" fill="white"/>
<path d="M333.642 4.0941V8.18565C334.044 8.01615 334.388 7.73163 334.629 7.36772C334.871 7.00382 335 6.5767 335 6.13988C335 5.70305 334.871 5.27594 334.629 4.91203C334.388 4.54812 334.044 4.2636 333.642 4.0941Z" fill="white"/>
<path d="M329.209 2.38896H313.525C312.771 2.38896 312.161 2.99942 312.161 3.75247V8.52628C312.161 9.27932 312.771 9.88978 313.525 9.88978H329.209C329.962 9.88978 330.573 9.27932 330.573 8.52628V3.75247C330.573 2.99942 329.962 2.38896 329.209 2.38896Z" fill="white"/>
<path d="M297.156 11.5581C297.114 11.5578 297.073 11.5493 297.034 11.533C296.995 11.5167 296.96 11.4929 296.93 11.4629L294.884 9.40081C294.853 9.37018 294.829 9.33349 294.812 9.293C294.796 9.25251 294.788 9.20907 294.789 9.16538C294.79 9.12168 294.8 9.07864 294.818 9.03891C294.836 8.99918 294.862 8.9636 294.895 8.93437C295.526 8.3999 296.327 8.10662 297.155 8.10662C297.982 8.10662 298.783 8.3999 299.415 8.93437C299.447 8.96387 299.472 8.9996 299.49 9.03936C299.508 9.07912 299.517 9.12206 299.517 9.16554C299.518 9.20923 299.51 9.25261 299.493 9.29305C299.477 9.3335 299.452 9.37016 299.421 9.40081L297.375 11.4629C297.318 11.5221 297.239 11.5563 297.156 11.5581ZM300.745 7.9391C300.663 7.93909 300.585 7.90799 300.526 7.85216C299.603 7.0155 298.403 6.55204 297.158 6.55204C295.913 6.55204 294.712 7.0155 293.79 7.85216C293.731 7.90799 293.652 7.93909 293.571 7.9391C293.529 7.93929 293.488 7.93116 293.449 7.91518C293.411 7.8992 293.375 7.87569 293.346 7.84602L292.166 6.65231C292.134 6.62166 292.11 6.58512 292.093 6.54482C292.076 6.50451 292.067 6.46125 292.067 6.41756C292.067 6.37386 292.076 6.3306 292.093 6.2903C292.11 6.25 292.134 6.21346 292.166 6.18281C293.521 4.92213 295.303 4.2213 297.153 4.2213C299.004 4.2213 300.786 4.92213 302.141 6.18281C302.173 6.21307 302.198 6.24937 302.216 6.2896C302.233 6.32983 302.243 6.37316 302.243 6.41705C302.243 6.50509 302.209 6.58966 302.147 6.65231L300.969 7.84602C300.939 7.87552 300.904 7.89893 300.866 7.91491C300.827 7.93088 300.786 7.9391 300.745 7.9391ZM303.46 5.19265C303.42 5.19302 303.38 5.18535 303.342 5.17007C303.304 5.1548 303.27 5.13223 303.241 5.10366C301.599 3.54168 299.418 2.67065 297.152 2.67065C294.885 2.67065 292.705 3.54168 291.062 5.10366C291.033 5.13223 290.999 5.1548 290.961 5.17007C290.924 5.18535 290.884 5.19302 290.843 5.19265C290.801 5.19285 290.76 5.18472 290.721 5.16873C290.682 5.15275 290.647 5.12924 290.618 5.09957L289.441 3.90689C289.41 3.87629 289.386 3.83994 289.369 3.79992C289.352 3.7599 289.344 3.717 289.344 3.67367C289.344 3.63034 289.352 3.58743 289.369 3.54741C289.386 3.5074 289.41 3.47105 289.441 3.44045C291.516 1.45235 294.279 0.342502 297.153 0.342502C300.027 0.342502 302.79 1.45235 304.866 3.44045C304.897 3.47069 304.923 3.50686 304.94 3.54688C304.958 3.58689 304.967 3.62998 304.968 3.67367C304.968 3.71715 304.96 3.76027 304.944 3.80049C304.927 3.84072 304.903 3.87724 304.872 3.90791L303.688 5.09957C303.659 5.12966 303.623 5.15342 303.584 5.16941C303.545 5.18541 303.503 5.19332 303.46 5.19265Z" fill="white"/>
<path d="M283.18 11.5959H282.157C281.885 11.5959 281.625 11.4882 281.433 11.2963C281.242 11.1045 281.134 10.8443 281.134 10.5731V1.7077C281.134 1.43642 281.242 1.17624 281.433 0.984413C281.625 0.792585 281.885 0.684817 282.157 0.684817H283.18C283.451 0.684817 283.711 0.792585 283.903 0.984413C284.095 1.17624 284.202 1.43642 284.202 1.7077V10.5731C284.202 10.8443 284.095 11.1045 283.903 11.2963C283.711 11.4882 283.451 11.5959 283.18 11.5959ZM277.383 11.5959C277.112 11.5959 276.851 11.4882 276.66 11.2963C276.468 11.1045 276.36 10.8443 276.36 10.5731V4.09512C276.36 3.82383 276.468 3.56366 276.66 3.37183C276.851 3.18 277.112 3.07223 277.383 3.07223H278.406C278.677 3.07223 278.937 3.18 279.129 3.37183C279.321 3.56366 279.429 3.82383 279.429 4.09512V10.5731C279.429 10.8442 279.321 11.1042 279.129 11.296C278.938 11.4878 278.678 11.5957 278.407 11.5959H277.383ZM273.632 11.5959H272.609C272.338 11.5959 272.078 11.4882 271.886 11.2963C271.694 11.1045 271.586 10.8443 271.586 10.5731V6.48151C271.586 6.21023 271.694 5.95005 271.886 5.75822C272.078 5.56639 272.338 5.45862 272.609 5.45862H273.632C273.903 5.45862 274.163 5.56639 274.355 5.75822C274.547 5.95005 274.655 6.21023 274.655 6.48151V10.5731C274.655 10.8443 274.547 11.1045 274.355 11.2963C274.163 11.4882 273.903 11.5959 273.632 11.5959ZM268.859 11.5959H267.836C267.565 11.5959 267.305 11.4882 267.113 11.2963C266.921 11.1045 266.813 10.8443 266.813 10.5731V8.52728C266.813 8.256 266.921 7.99582 267.113 7.80399C267.305 7.61217 267.565 7.5044 267.836 7.5044H268.859C269.13 7.5044 269.391 7.61217 269.582 7.80399C269.774 7.99582 269.882 8.256 269.882 8.52728V10.5731C269.882 10.8443 269.774 11.1045 269.582 11.2963C269.391 11.4882 269.13 11.5959 268.859 11.5959Z" fill="white"/>
<path d="M3.95569 11.3426C6.7052 11.3426 8.33842 9.19249 8.33842 5.55145C8.33842 4.18045 8.0762 3.0267 7.57425 2.13517C6.84754 0.749184 5.5964 0 4.01563 0C1.66319 0 0 1.58078 0 3.79836C0 5.88109 1.49837 7.39445 3.55862 7.39445C4.82475 7.39445 5.85113 6.80259 6.36057 5.77621H6.38305C6.38305 5.77621 6.41302 5.77621 6.42051 5.77621C6.43549 5.77621 6.48793 5.77621 6.48793 5.77621C6.48793 8.24852 5.55145 9.72441 3.97068 9.72441C3.04169 9.72441 2.32247 9.21496 2.07524 8.39835H0.149837C0.471986 10.1739 1.97785 11.3426 3.95569 11.3426ZM4.02312 5.85862C2.77947 5.85862 1.89544 4.97458 1.89544 3.73843C1.89544 2.53224 2.82442 1.61075 4.03061 1.61075C5.2368 1.61075 6.16578 2.54723 6.16578 3.7684C6.16578 4.97458 5.25927 5.85862 4.02312 5.85862Z" fill="white"/>
<path d="M11.7322 9.93418C12.4439 9.93418 12.9309 9.42474 12.9309 8.75047C12.9309 8.06871 12.4439 7.56676 11.7322 7.56676C11.028 7.56676 10.5335 8.06871 10.5335 8.75047C10.5335 9.42474 11.028 9.93418 11.7322 9.93418ZM11.7322 4.3153C12.4439 4.3153 12.9309 3.81335 12.9309 3.13908C12.9309 2.45732 12.4439 1.95537 11.7322 1.95537C11.028 1.95537 10.5335 2.45732 10.5335 3.13908C10.5335 3.81335 11.028 4.3153 11.7322 4.3153Z" fill="white"/>
<path d="M20.4003 11.0804H22.2508V9.06513H23.7117V7.43191H22.2508V0.269706H19.5237C17.6133 3.14657 16.0925 5.55145 15.1185 7.342V9.06513H20.4003V11.0804ZM16.9091 7.36448C18.1677 5.14689 19.2915 3.37133 20.3254 1.84299H20.4302V7.47686H16.9091V7.36448Z" fill="white"/>
<path d="M28.1394 11.0804H30.0722V0.269706H28.1468L25.3224 2.24755V4.10553L28.012 2.21758H28.1394V11.0804Z" fill="white"/>
</svg>
