<svg width="21" height="15" viewBox="0 0 21 15" fill="none" xmlns="http://www.w3.org/2000/svg">
<path fill-rule="evenodd" clip-rule="evenodd" d="M0 1.25C0 0.559644 0.587626 0 1.3125 0H19.6875C20.4124 0 21 0.559644 21 1.25C21 1.94036 20.4124 2.5 19.6875 2.5H1.3125C0.587626 2.5 0 1.94036 0 1.25ZM0 7.5C0 6.80964 0.587626 6.25 1.3125 6.25H19.6875C20.4124 6.25 21 6.80964 21 7.5C21 8.19036 20.4124 8.75 19.6875 8.75H1.3125C0.587626 8.75 0 8.19036 0 7.5ZM0 13.75C0 13.0596 0.587626 12.5 1.3125 12.5H19.6875C20.4124 12.5 21 13.0596 21 13.75C21 14.4404 20.4124 15 19.6875 15H1.3125C0.587626 15 0 14.4404 0 13.75Z" fill="white"/>
</svg>
