<svg width="17" height="12" viewBox="0 0 17 12" fill="none" xmlns="http://www.w3.org/2000/svg">
<path d="M10.4968 7.93993C10.6913 7.74392 10.6901 7.42734 10.4941 7.23283C10.2981 7.03831 9.9815 7.03953 9.78698 7.23554L10.4968 7.93993ZM7.82995 8.06948L8.00767 7.60213L8.00623 7.60158L7.82995 8.06948ZM6.67467 6.98424L7.13451 6.78791L7.13385 6.78636L6.67467 6.98424ZM7.51691 5.18862C7.72465 5.0067 7.74559 4.69081 7.56367 4.48306C7.38174 4.27531 7.06585 4.25438 6.85811 4.4363L7.51691 5.18862ZM8.66466 11.4364V11.9365L8.67231 11.9364L8.66466 11.4364ZM13.6023 7.13897L13.2598 7.50324L13.6023 7.13897ZM15.8552 5.43663L15.4417 5.71773L15.8552 5.43663ZM11.0296 8.42161L11.3719 8.05718L11.0296 8.42161ZM9.78698 7.23554C9.64278 7.38085 9.46751 7.4988 9.27014 7.58143L9.6563 8.50386C9.97176 8.37179 10.2578 8.1808 10.4968 7.93993L9.78698 7.23554ZM9.27014 7.58143C9.07299 7.66396 8.85919 7.70868 8.64121 7.71223L8.65753 8.7121C9.00116 8.70649 9.34061 8.63602 9.6563 8.50386L9.27014 7.58143ZM8.64121 7.71223C8.42304 7.71579 8.20747 7.67811 8.00767 7.60213L7.65222 8.53683C7.97222 8.65852 8.31408 8.71771 8.65753 8.7121L8.64121 7.71223ZM8.00623 7.60158C7.80666 7.52639 7.62701 7.41407 7.47688 7.27305L6.79222 8.0019C7.03926 8.23397 7.33204 8.4162 7.65366 8.53737L8.00623 7.60158ZM7.47688 7.27305C7.32678 7.13205 7.2109 6.96683 7.13451 6.78791L6.21483 7.18057C6.34747 7.49125 6.54515 7.76981 6.79222 8.0019L7.47688 7.27305ZM7.13385 6.78636C7.05665 6.60724 7.01913 6.41601 7.02268 6.22374L6.02286 6.20525C6.01666 6.54055 6.08226 6.87296 6.21549 7.18212L7.13385 6.78636ZM7.02268 6.22374C7.02624 6.03168 7.07083 5.84167 7.15498 5.6643L6.2515 5.23567C6.1071 5.54005 6.02906 5.86975 6.02286 6.20525L7.02268 6.22374ZM7.15498 5.6643C7.23931 5.48655 7.36161 5.32461 7.51691 5.18862L6.85811 4.4363C6.6023 4.66031 6.39571 4.93168 6.2515 5.23567L7.15498 5.6643ZM10.4836 10.663C9.89553 10.8338 9.28075 10.9269 8.65701 10.9365L8.67231 11.9364C9.38541 11.9255 10.0889 11.819 10.7625 11.6233L10.4836 10.663ZM8.66466 10.9364C5.36152 10.9364 3.04299 8.32796 1.998 6.84181L1.17998 7.417C2.25083 8.93992 4.83129 11.9364 8.66466 11.9364V10.9364ZM2.00022 5.55581C2.46396 4.89427 2.99889 4.27899 3.59663 3.71961L2.91334 2.98946C2.26581 3.59543 1.68531 4.26292 1.18137 4.9818L2.00022 5.55581ZM5.38221 3.80262L10.6872 8.78604L11.3719 8.05718L6.06688 3.07377L5.38221 3.80262ZM8.66476 1.46366C12.0955 1.46366 14.4629 4.27793 15.4417 5.71773L16.2687 5.15552C15.2719 3.6892 12.6422 0.463656 8.66476 0.463656V1.46366ZM13.9448 6.7747L8.61831 1.76658L7.93331 2.49512L13.2598 7.50324L13.9448 6.7747ZM15.4416 6.68396C15.1262 7.15254 14.4256 7.22677 13.9448 6.7747L13.2598 7.50324C14.1192 8.31134 15.5594 8.29992 16.2712 7.24233L15.4416 6.68396ZM15.4417 5.71773C15.6414 6.01144 15.6419 6.38644 15.4416 6.68396L16.2712 7.24233C16.6977 6.60872 16.7 5.79003 16.2687 5.15552L15.4417 5.71773ZM8.66608 0.463658C8.12483 0.46222 7.72747 0.797832 7.58841 1.23408C7.45366 1.65677 7.56574 2.14952 7.93331 2.49512L8.61831 1.76658C8.53013 1.68367 8.5239 1.59199 8.54117 1.5378C8.54982 1.51066 8.56332 1.49454 8.57554 1.4854C8.58547 1.47797 8.60955 1.46351 8.66343 1.46365L8.66608 0.463658ZM3.59663 3.71961C4.07208 3.27467 4.84655 3.29943 5.38221 3.80262L6.06688 3.07377C5.20943 2.2683 3.83347 2.12839 2.91334 2.98946L3.59663 3.71961ZM1.998 6.84181C1.7253 6.454 1.72582 5.94726 2.00022 5.55581L1.18137 4.9818C0.667406 5.71499 0.662672 6.68131 1.17998 7.417L1.998 6.84181ZM10.7625 11.6233C11.5755 11.3871 12.0333 10.7453 12.1208 10.0353C12.2063 9.34227 11.9429 8.59351 11.3719 8.05718L10.6872 8.78604C11.0348 9.11256 11.1732 9.54877 11.1283 9.91291C11.0855 10.26 10.8808 10.5476 10.4836 10.663L10.7625 11.6233Z" fill="#FED141"/>
</svg>
